# xmcd CD database file
#
# Track frame offsets:
#	150
#	42541
#	63945
#	88339
#	117287
#
# Disc length: 1908 seconds
#
# Revision: 0
# Processed by: cddbd v1.5.2PL0 Copyright (c) Steve Scherf et al.
# Submitted via: CDex 1.51
#
DISCID=42077205
DTITLE=Miles Davis - Cool Jazz Collection Vol.31
DYEAR=2009
DGENRE=Jazz
TTITLE0=Bag's Groove
TTITLE1=Solar
TTITLE2=It Never Entered My Mind
TTITLE3=Seven Steps to Heaven
TTITLE4=Milestones
EXTD=YEAR: 2009
EXTT0=
EXTT1=
EXTT2=
EXTT3=
EXTT4=
PLAYORDER=
